<svg xmlns="http://www.w3.org/2000/svg" width="17" height="16" viewBox="0 0 17 16" fill="none">
<path d="M7.98328 11.8253C8.30107 11.6334 8.69895 11.6334 9.01675 11.8253L10.591 12.7754C11.3483 13.2325 12.2826 12.5535 12.0816 11.6921L11.6638 9.90118C11.5795 9.53968 11.7023 9.16122 11.9829 8.91816L13.3787 7.70894C14.0468 7.13017 13.6905 6.03275 12.8099 5.95681L10.9728 5.7984C10.604 5.76659 10.2829 5.53361 10.1382 5.19283L9.42052 3.50197C9.07569 2.68961 7.92433 2.68961 7.5795 3.50197L6.86178 5.19283C6.71713 5.53361 6.39604 5.76659 6.02719 5.7984L4.18717 5.95707C3.30694 6.03297 2.95038 7.12951 3.61763 7.7086L5.01199 8.91876C5.29172 9.16153 5.41435 9.53904 5.33069 9.89986L4.9143 11.6957C4.71465 12.5568 5.64843 13.2345 6.40519 12.7777L7.98328 11.8253Z" fill="white"/>
</svg>